<?xml version="1.0" encoding="UTF-8"?>
<svg width="15px" height="13px" viewBox="0 0 15 13" version="1.1" xmlns="http://www.w3.org/2000/svg" xmlns:xlink="http://www.w3.org/1999/xlink">
    <!-- Generator: Sketch 56.2 (81672) - https://sketch.com -->
    <title>icon_card_zhuifan</title>
    <desc>Created with Sketch.</desc>
    <g id="Page-1" stroke="none" stroke-width="1" fill="none" fill-rule="evenodd">
        <g id="番剧列表（窄屏）最多追番" transform="translate(-153.000000, -780.000000)">
            <g id="分组-7" transform="translate(145.000000, 607.000000)">
                <g id="追番" transform="translate(0.000000, 157.000000)">
                    <g id="编组-2" transform="translate(8.000000, 15.000000)">
                        <g id="icon_card_zhuifan">
                            <g id="icon_点赞">
                                <g>
                                    <rect id="Rectangle" fill="#D8D8D8" opacity="0" x="0" y="0" width="15" height="15"></rect>
                                    <path d="M8.01452741,12.2334386 L8.01441818,12.2337461 C12.7191103,7.9584142 11.9829949,8.65586871 12.6837297,7.62447375 C13.1801762,6.89376587 13.4125,6.21974395 13.4125,5.484375 C13.4125,3.82211009 12.1153899,2.525 10.453125,2.525 C9.5208466,2.525 8.59938778,2.95810058 7.99487878,3.66798271 L7.5,4.24912476 L7.00512122,3.66798271 C6.40061222,2.95810058 5.4791534,2.525 4.546875,2.525 C2.88461009,2.525 1.5875,3.82211009 1.5875,5.484375 C1.5875,6.22188306 1.82117979,6.89770875 2.32063548,7.63056699 C3.02270201,8.66071893 2.33187921,8.00722364 6.97670418,12.2192633 L6.98739068,12.2286232 C7.26356717,12.4705157 7.74000418,12.4719898 8.01452741,12.2334386 Z" id="Page-1-Copy" stroke="#FFFFFF" stroke-width="1.3"></path>
                                    <path d="M8.44087601,12.7240779 C7.92124454,13.1756197 7.07986093,13.1736828 6.55912399,12.7175891 L6.5484375,12.7082292 C3.16875,9.64354167 0.9375,7.965 0.9375,5.484375 C0.9375,3.463125 2.525625,1.875 4.546875,1.875 C5.68875,1.875 6.7846875,2.4065625 7.5,3.2465625 C8.2153125,2.4065625 9.31125,1.875 10.453125,1.875 C12.474375,1.875 14.0625,3.463125 14.0625,5.484375 C14.0625,7.965 11.83125,9.64354167 8.4515625,12.7147917 L8.44087601,12.7240779 Z M7.57727385,11.7527005 C12.1869501,7.56371319 11.4915226,8.22261663 12.1460787,7.25919105 C12.5730649,6.63072011 12.7625,6.08112783 12.7625,5.484375 C12.7625,4.18109517 11.7564048,3.175 10.453125,3.175 C9.71293944,3.175 8.97178181,3.5233561 8.48975756,4.08940292 L7.5,5.25168703 L6.51024244,4.08940292 C6.02821819,3.5233561 5.28706056,3.175 4.546875,3.175 C3.24359517,3.175 2.2375,4.18109517 2.2375,5.484375 C2.2375,6.08287995 2.42806496,6.63401316 2.85775842,7.26450833 C3.51368589,8.22695978 2.86204005,7.61052459 7.40497086,11.7302974 L7.41565736,11.7396573 C7.44765521,11.767683 7.55914593,11.7680279 7.58817882,11.7427994 L7.57727385,11.7527005 Z" id="Page-1-Copy" fill="#FFFFFF" fill-rule="nonzero"></path>
                                    <rect id="矩形" fill="#D8D8D8" opacity="0" x="0" y="0" width="15" height="15"></rect>
                                </g>
                            </g>
                        </g>
                    </g>
                </g>
            </g>
        </g>
    </g>
</svg>