<?xml version="1.0" encoding="UTF-8"?>
<svg width="40px" height="40px" viewBox="0 0 40 40" version="1.1" xmlns="http://www.w3.org/2000/svg" xmlns:xlink="http://www.w3.org/1999/xlink">
    <title>icon_ac</title>
    <defs>
        <filter x="-3.6%" y="-5.7%" width="107.1%" height="111.4%" filterUnits="objectBoundingBox" id="filter-1">
            <feOffset dx="0" dy="2" in="SourceAlpha" result="shadowOffsetOuter1"></feOffset>
            <feGaussianBlur stdDeviation="2.5" in="shadowOffsetOuter1" result="shadowBlurOuter1"></feGaussianBlur>
            <feColorMatrix values="0 0 0 0 0   0 0 0 0 0   0 0 0 0 0  0 0 0 0.5 0" type="matrix" in="shadowBlurOuter1" result="shadowMatrixOuter1"></feColorMatrix>
            <feMerge>
                <feMergeNode in="shadowMatrixOuter1"></feMergeNode>
                <feMergeNode in="SourceGraphic"></feMergeNode>
            </feMerge>
        </filter>
    </defs>
    <g id="页面-1" stroke="none" stroke-width="1" fill="none" fill-rule="evenodd">
        <g id="关注动态_转发" transform="translate(-705.000000, -507.000000)">
            <rect fill="#FFFFFF" x="0" y="0" width="1920" height="1623"></rect>
            <g id="视频稿件备份-2" transform="translate(547.000000, 483.000000)"></g>
            <g id="编组-59备份-14" transform="translate(547.000000, 420.857864)">
                <g id="编组-58" filter="url(#filter-1)" transform="translate(0.000000, 6.071068)" fill="#FFFFFF">
                    <path d="M0,60 L380,60 L380,233 C380,235.209139 378.209139,237 376,237 L4,237 C1.790861,237 2.705415e-16,235.209139 0,233 L0,60 L0,60 Z" id="矩形"></path>
                </g>
                <g id="编组-2" transform="translate(158.000000, 86.142136)">
                    <g id="编组-4" transform="translate(0.000000, -0.000000)">
                        <rect id="矩形" fill="#FE5F76" x="0" y="-7.10542736e-15" width="40" height="40" rx="20"></rect>
                        <g id="Group-71" transform="translate(5.299722, 9.948209)" fill="#FFFFFF" fill-rule="nonzero">
                            <path d="M14.7822091,0 C16.9954448,0 19.2017519,0.780074995 21.0409065,2.1893041 C21.8050816,1.83499505 22.7594449,1.54114509 23.6246971,1.51590502 C26.9373005,1.41866039 29.5266127,3.88832343 29.6176808,7.00190358 C29.6929478,9.57371484 28.0889908,11.7733952 25.6096309,12.5233296 C25.3721156,15.645444 24.7302686,18.9684085 21.3068751,20.8921952 L21.4027764,20.0924412 C21.4191144,19.9605842 21.4355974,19.8293744 21.4521774,19.6987059 C19.8739761,20.8768643 17.6898114,21.471419 15.0313952,21.471419 C12.4110234,21.471419 10.1605439,20.8779806 8.47915299,19.7439274 L8.64979072,21.0007385 L8.64979072,21.0007385 C5.86303399,19.7585671 4.04443482,16.193312 3.81217113,12.5967084 L3.80551448,12.4769572 C1.44305733,11.6701829 -0.070634323,9.52174164 0.00253979304,7.02144406 C0.0936080412,3.90785997 2.68263163,1.43819381 5.99523916,1.53529255 C6.87724604,1.56101752 7.8515825,1.86577198 8.62374967,2.22868288 C10.5133619,0.812760528 12.7185027,0 14.7822091,0 Z M11.6540775,7.01865072 C10.8824736,8.79200777 9.21295869,10.7402804 7.70306595,12.0391771 C7.86541555,14.3974654 8.06447402,16.3552566 8.25805179,17.9838285 C9.75305615,19.4673914 12.1029275,20.2491968 15.0313952,20.2491968 C18.0904906,20.2491968 20.3660494,19.4291174 21.7014697,17.7728226 L21.8078203,16.9185895 C21.9969882,15.3486304 22.1488654,13.7456798 22.1752372,11.9161421 L21.9419112,11.8491813 C21.1578115,11.6144799 18.6315858,10.754238 16.505028,8.66216157 C16.497351,9.5894895 16.6043935,10.5223243 17.127149,12.361329 C14.7015289,11.949763 12.6457051,9.94772588 11.6540775,7.01865072 Z M19.4339216,13.286346 C19.9121395,13.286346 20.2998496,13.9349472 20.2998496,14.735029 C20.2998496,15.5353917 19.9121395,16.1838525 19.4339216,16.1838525 C18.9557037,16.1838525 18.5679936,15.5353917 18.5679936,14.735029 C18.5679936,13.9349472 18.9557037,13.286346 19.4339216,13.286346 Z M10.4138313,13.286346 C10.8920492,13.286346 11.2797593,13.9349472 11.2797593,14.735029 C11.2797593,15.5353917 10.8920492,16.1838525 10.4138313,16.1838525 C9.93561344,16.1838525 9.54790334,15.5353917 9.54790334,14.735029 C9.54790334,13.9349472 9.93561344,13.286346 10.4138313,13.286346 Z" id="Shape"></path>
                        </g>
                    </g>
                </g>
            </g>
        </g>
    </g>
</svg>